<mxfile host="app.diagrams.net" agent="Mozilla/5.0 (Windows NT 10.0; Win64; x64) AppleWebKit/537.36 (KHTML, like Gecko) Chrome/135.0.0.0 Safari/537.36" version="26.2.10">
  <diagram name="Page-1" id="e7e014a7-5840-1c2e-5031-d8a46d1fe8dd">
    <mxGraphModel dx="672" dy="384" grid="1" gridSize="10" guides="1" tooltips="1" connect="1" arrows="1" fold="1" page="1" pageScale="1" pageWidth="1169" pageHeight="826" background="none" math="0" shadow="0">
      <root>
        <mxCell id="0" />
        <mxCell id="1" parent="0" />
        <mxCell id="2" value="Pengguna (Administrator/petugas)" style="swimlane;whiteSpace=wrap" parent="1" vertex="1">
          <mxGeometry x="164.5" y="128" width="280" height="802" as="geometry" />
        </mxCell>
        <mxCell id="5" value="" style="ellipse;shape=startState;fillColor=#000000;strokeColor=#ff0000;" parent="2" vertex="1">
          <mxGeometry x="125" y="40" width="30" height="30" as="geometry" />
        </mxCell>
        <mxCell id="6" value="Start" style="edgeStyle=elbowEdgeStyle;elbow=vertical;verticalAlign=bottom;endArrow=open;endSize=8;strokeColor=#FF0000;endFill=1;rounded=0" parent="2" source="5" target="7" edge="1">
          <mxGeometry x="100" y="40" as="geometry">
            <mxPoint x="115" y="110" as="targetPoint" />
          </mxGeometry>
        </mxCell>
        <mxCell id="7" value="login" style="" parent="2" vertex="1">
          <mxGeometry x="85" y="110" width="110" height="50" as="geometry" />
        </mxCell>
        <mxCell id="8" value="Verifikasi Identitas" style="" parent="2" vertex="1">
          <mxGeometry x="85" y="220" width="110" height="50" as="geometry" />
        </mxCell>
        <mxCell id="9" value="" style="endArrow=open;strokeColor=#FF0000;endFill=1;rounded=0" parent="2" source="7" target="8" edge="1">
          <mxGeometry relative="1" as="geometry" />
        </mxCell>
        <mxCell id="10" value="Menuju Menu Utama" style="" parent="2" vertex="1">
          <mxGeometry x="85" y="322" width="110" height="50" as="geometry" />
        </mxCell>
        <mxCell id="__GuVXdMnl9JLXDUSHel-45" value="Akses Fitur Verifikasi" style="" vertex="1" parent="2">
          <mxGeometry x="80" y="422" width="120" height="50" as="geometry" />
        </mxCell>
        <mxCell id="__GuVXdMnl9JLXDUSHel-46" value="Melakukan Verifikasi" style="" vertex="1" parent="2">
          <mxGeometry x="66.13" y="512" width="147.75" height="50" as="geometry" />
        </mxCell>
        <mxCell id="__GuVXdMnl9JLXDUSHel-47" value="Hasil Verifikasi" style="" vertex="1" parent="2">
          <mxGeometry x="85" y="602" width="110" height="50" as="geometry" />
        </mxCell>
        <mxCell id="__GuVXdMnl9JLXDUSHel-58" value="" style="endArrow=open;strokeColor=#FF0000;endFill=1;rounded=0;entryX=0.5;entryY=0;entryDx=0;entryDy=0;exitX=0.5;exitY=1;exitDx=0;exitDy=0;" edge="1" parent="2" source="10" target="__GuVXdMnl9JLXDUSHel-45">
          <mxGeometry relative="1" as="geometry">
            <mxPoint x="170" y="190" as="sourcePoint" />
            <mxPoint x="170" y="250" as="targetPoint" />
          </mxGeometry>
        </mxCell>
        <mxCell id="__GuVXdMnl9JLXDUSHel-59" value="" style="endArrow=open;strokeColor=#FF0000;endFill=1;rounded=0;entryX=0.5;entryY=0;entryDx=0;entryDy=0;exitX=0.5;exitY=1;exitDx=0;exitDy=0;" edge="1" parent="2" source="__GuVXdMnl9JLXDUSHel-45" target="__GuVXdMnl9JLXDUSHel-46">
          <mxGeometry relative="1" as="geometry">
            <mxPoint x="180" y="200" as="sourcePoint" />
            <mxPoint x="180" y="260" as="targetPoint" />
          </mxGeometry>
        </mxCell>
        <mxCell id="__GuVXdMnl9JLXDUSHel-60" value="" style="endArrow=open;strokeColor=#FF0000;endFill=1;rounded=0;exitX=0.5;exitY=1;exitDx=0;exitDy=0;" edge="1" parent="2" source="__GuVXdMnl9JLXDUSHel-46" target="__GuVXdMnl9JLXDUSHel-47">
          <mxGeometry relative="1" as="geometry">
            <mxPoint x="190" y="210" as="sourcePoint" />
            <mxPoint x="190" y="270" as="targetPoint" />
          </mxGeometry>
        </mxCell>
        <mxCell id="__GuVXdMnl9JLXDUSHel-63" value="Melakukan input tanggapan" style="" vertex="1" parent="2">
          <mxGeometry x="49.75999999999999" y="682" width="180.5" height="50" as="geometry" />
        </mxCell>
        <mxCell id="3" value="Sistem" style="swimlane;whiteSpace=wrap" parent="1" vertex="1">
          <mxGeometry x="440" y="128" width="280" height="802" as="geometry" />
        </mxCell>
        <mxCell id="38" value="" style="ellipse;shape=endState;fillColor=#000000;strokeColor=#ff0000" parent="3" vertex="1">
          <mxGeometry x="187.5" y="732" width="30" height="30" as="geometry" />
        </mxCell>
        <mxCell id="__GuVXdMnl9JLXDUSHel-49" value="Tampilkan pesan Kesalahan" style="" vertex="1" parent="3">
          <mxGeometry x="62" y="102" width="155.5" height="50" as="geometry" />
        </mxCell>
        <mxCell id="23" value="no" style="edgeStyle=elbowEdgeStyle;elbow=horizontal;align=left;verticalAlign=top;endArrow=open;endSize=8;strokeColor=#FF0000;endFill=1;rounded=0;entryX=0.5;entryY=1;entryDx=0;entryDy=0;" parent="3" source="21" target="__GuVXdMnl9JLXDUSHel-49" edge="1">
          <mxGeometry x="-1" relative="1" as="geometry">
            <mxPoint x="-65" y="232" as="targetPoint" />
            <mxPoint x="140" y="222" as="sourcePoint" />
          </mxGeometry>
        </mxCell>
        <mxCell id="__GuVXdMnl9JLXDUSHel-56" value="No" style="edgeLabel;html=1;align=center;verticalAlign=middle;resizable=0;points=[];" vertex="1" connectable="0" parent="23">
          <mxGeometry x="-0.1037" y="-4" relative="1" as="geometry">
            <mxPoint as="offset" />
          </mxGeometry>
        </mxCell>
        <mxCell id="21" value="verifikasi" style="rhombus;fillColor=#ffffc0;strokeColor=#ff0000;" parent="3" vertex="1">
          <mxGeometry x="100" y="212" width="80" height="40" as="geometry" />
        </mxCell>
        <mxCell id="__GuVXdMnl9JLXDUSHel-61" value="Ada tanggapan?" style="rhombus;fillColor=#ffffc0;strokeColor=#ff0000;" vertex="1" parent="3">
          <mxGeometry x="95" y="452" width="105" height="88" as="geometry" />
        </mxCell>
        <mxCell id="__GuVXdMnl9JLXDUSHel-67" value="" style="endArrow=open;strokeColor=#FF0000;endFill=1;rounded=0;exitX=1;exitY=0.5;exitDx=0;exitDy=0;entryX=0.5;entryY=0;entryDx=0;entryDy=0;" edge="1" parent="3" source="__GuVXdMnl9JLXDUSHel-61" target="38">
          <mxGeometry relative="1" as="geometry">
            <mxPoint x="-130.5" y="572" as="sourcePoint" />
            <mxPoint x="-130.5" y="612" as="targetPoint" />
          </mxGeometry>
        </mxCell>
        <mxCell id="__GuVXdMnl9JLXDUSHel-69" value="No" style="edgeLabel;html=1;align=center;verticalAlign=middle;resizable=0;points=[];" vertex="1" connectable="0" parent="__GuVXdMnl9JLXDUSHel-67">
          <mxGeometry x="-0.6586" relative="1" as="geometry">
            <mxPoint as="offset" />
          </mxGeometry>
        </mxCell>
        <mxCell id="__GuVXdMnl9JLXDUSHel-71" value="End" style="edgeLabel;html=1;align=center;verticalAlign=middle;resizable=0;points=[];" vertex="1" connectable="0" parent="__GuVXdMnl9JLXDUSHel-67">
          <mxGeometry x="0.839" y="1" relative="1" as="geometry">
            <mxPoint as="offset" />
          </mxGeometry>
        </mxCell>
        <mxCell id="__GuVXdMnl9JLXDUSHel-70" style="edgeStyle=orthogonalEdgeStyle;rounded=0;orthogonalLoop=1;jettySize=auto;html=1;exitX=0.5;exitY=1;exitDx=0;exitDy=0;entryX=0.25;entryY=0.567;entryDx=0;entryDy=0;entryPerimeter=0;" edge="1" parent="3" source="38" target="38">
          <mxGeometry relative="1" as="geometry" />
        </mxCell>
        <mxCell id="__GuVXdMnl9JLXDUSHel-42" value="" style="endArrow=open;strokeColor=#FF0000;endFill=1;rounded=0;exitX=0.5;exitY=1;exitDx=0;exitDy=0;entryX=1;entryY=0.5;entryDx=0;entryDy=0;" edge="1" parent="1" source="21" target="10">
          <mxGeometry relative="1" as="geometry">
            <mxPoint x="289.5" y="298" as="sourcePoint" />
            <mxPoint x="289.5" y="358" as="targetPoint" />
            <Array as="points">
              <mxPoint x="580" y="475" />
            </Array>
          </mxGeometry>
        </mxCell>
        <mxCell id="__GuVXdMnl9JLXDUSHel-43" value="Yes" style="edgeLabel;html=1;align=center;verticalAlign=middle;resizable=0;points=[];" vertex="1" connectable="0" parent="__GuVXdMnl9JLXDUSHel-42">
          <mxGeometry x="-0.5218" y="-2" relative="1" as="geometry">
            <mxPoint as="offset" />
          </mxGeometry>
        </mxCell>
        <mxCell id="__GuVXdMnl9JLXDUSHel-52" value="" style="endArrow=open;strokeColor=#FF0000;endFill=1;rounded=0;exitX=0;exitY=0.5;exitDx=0;exitDy=0;entryX=1;entryY=0.25;entryDx=0;entryDy=0;" edge="1" parent="1" source="__GuVXdMnl9JLXDUSHel-49" target="8">
          <mxGeometry relative="1" as="geometry">
            <mxPoint x="314.5" y="298" as="sourcePoint" />
            <mxPoint x="314.5" y="358" as="targetPoint" />
            <Array as="points">
              <mxPoint x="480" y="255" />
              <mxPoint x="480" y="360" />
            </Array>
          </mxGeometry>
        </mxCell>
        <mxCell id="__GuVXdMnl9JLXDUSHel-57" value="" style="endArrow=open;strokeColor=#FF0000;endFill=1;rounded=0;exitX=1;exitY=0.75;exitDx=0;exitDy=0;entryX=0;entryY=1;entryDx=0;entryDy=0;" edge="1" parent="1" source="8" target="21">
          <mxGeometry relative="1" as="geometry">
            <mxPoint x="324.5" y="308" as="sourcePoint" />
            <mxPoint x="570" y="386" as="targetPoint" />
            <Array as="points">
              <mxPoint x="560" y="386" />
            </Array>
          </mxGeometry>
        </mxCell>
        <mxCell id="__GuVXdMnl9JLXDUSHel-62" value="" style="endArrow=open;strokeColor=#FF0000;endFill=1;rounded=0;exitX=1;exitY=0.5;exitDx=0;exitDy=0;entryX=0;entryY=0.5;entryDx=0;entryDy=0;" edge="1" parent="1" source="__GuVXdMnl9JLXDUSHel-47" target="__GuVXdMnl9JLXDUSHel-61">
          <mxGeometry relative="1" as="geometry">
            <mxPoint x="314.5" y="700" as="sourcePoint" />
            <mxPoint x="314.5" y="740" as="targetPoint" />
            <Array as="points">
              <mxPoint x="520" y="755" />
              <mxPoint x="520" y="624" />
            </Array>
          </mxGeometry>
        </mxCell>
        <mxCell id="__GuVXdMnl9JLXDUSHel-64" value="" style="endArrow=open;strokeColor=#FF0000;endFill=1;rounded=0;exitX=0.5;exitY=1;exitDx=0;exitDy=0;entryX=1;entryY=0.5;entryDx=0;entryDy=0;" edge="1" parent="1" source="__GuVXdMnl9JLXDUSHel-61" target="__GuVXdMnl9JLXDUSHel-63">
          <mxGeometry relative="1" as="geometry">
            <mxPoint x="370" y="765" as="sourcePoint" />
            <mxPoint x="550" y="634" as="targetPoint" />
            <Array as="points">
              <mxPoint x="590" y="765" />
              <mxPoint x="590" y="835" />
              <mxPoint x="500" y="835" />
            </Array>
          </mxGeometry>
        </mxCell>
        <mxCell id="__GuVXdMnl9JLXDUSHel-66" value="Yes" style="edgeLabel;html=1;align=center;verticalAlign=middle;resizable=0;points=[];" vertex="1" connectable="0" parent="__GuVXdMnl9JLXDUSHel-64">
          <mxGeometry x="-0.2711" y="-4" relative="1" as="geometry">
            <mxPoint as="offset" />
          </mxGeometry>
        </mxCell>
      </root>
    </mxGraphModel>
  </diagram>
</mxfile>
